<svg height='200' width='200'  fill="#000000" xmlns="http://www.w3.org/2000/svg" xmlns:xlink="http://www.w3.org/1999/xlink" version="1.1" x="0px" y="0px" viewBox="0 0 100 100" enable-background="new 0 0 100 100" xml:space="preserve"><g><polygon fill="#000000" points="26.695,34.434 26.695,65.566 54.5,49.998  "></polygon><g><path fill="#000000" d="M24.07,34.434c0,10.377,0,20.755,0,31.132c0,2.018,2.222,3.234,3.95,2.267    c9.269-5.189,18.537-10.379,27.804-15.568c1.706-0.955,1.707-3.578,0-4.533c-9.268-5.188-18.536-10.376-27.804-15.564    c-2.957-1.655-5.604,2.88-2.649,4.533c9.268,5.188,18.536,10.376,27.805,15.564c0-1.511,0-3.022,0-4.533    C43.907,52.921,34.639,58.11,25.371,63.3c1.316,0.756,2.633,1.511,3.95,2.267c0-10.377,0-20.755,0-31.132    C29.32,31.048,24.07,31.048,24.07,34.434z"></path></g></g><g><polygon fill="#000000" points="55.5,34.434 55.5,65.566 83.305,49.998  "></polygon><g><path fill="#000000" d="M52.875,34.434c0,10.377,0,20.755,0,31.132c0,2.018,2.222,3.234,3.949,2.267    c9.27-5.189,18.537-10.379,27.805-15.568c1.705-0.955,1.705-3.578,0-4.533c-9.268-5.188-18.535-10.376-27.805-15.564    c-2.957-1.655-5.604,2.88-2.648,4.533c9.268,5.188,18.535,10.376,27.803,15.564c0-1.511,0-3.022,0-4.533    C72.711,52.921,63.443,58.11,54.176,63.3c1.316,0.756,2.633,1.511,3.949,2.267c0-10.377,0-20.755,0-31.132    C58.125,31.048,52.875,31.048,52.875,34.434z"></path></g></g></svg>