<svg height='200' width='200'  fill="#000000" xmlns="http://www.w3.org/2000/svg" xmlns:xlink="http://www.w3.org/1999/xlink" version="1.1" x="0px" y="0px" viewBox="0 0 100 100" enable-background="new 0 0 100 100" xml:space="preserve"><path d="M22.5374432,8.0458021h17.7905254c1.1043053,0,2.0027237,0.8984165,2.0027237,1.9933624v79.9123154  c0,1.1043015-0.8984184,2.0027237-2.0027237,2.0027237H22.5374432c-1.1043034,0-2.0027199-0.8984222-2.0027199-2.0027237V10.0391645  C20.5347233,8.9442186,21.4331398,8.0458021,22.5374432,8.0458021z"></path><path d="M59.6720085,8.0458021h17.7998848c1.0949478,0,1.9933624,0.8984165,1.9933624,1.9933624v79.9123154  c0,1.1043015-0.8984146,2.0027237-1.9933624,2.0027237H59.6720085c-1.1043015,0-1.9933624-0.8984222-1.9933624-2.0027237V10.0391645  C57.6786461,8.9442186,58.5677071,8.0458021,59.6720085,8.0458021z"></path></svg>